<?xml version="1.0" standalone="no"?>
<!DOCTYPE svg PUBLIC "-//W3C//DTD SVG 20010904//EN"
 "http://www.w3.org/TR/2001/REC-SVG-20010904/DTD/svg10.dtd">
<svg version="1.0" xmlns="http://www.w3.org/2000/svg"
 width="260.000000pt" height="260.000000pt" viewBox="0 0 260.000000 260.000000"
 preserveAspectRatio="xMidYMid meet">
<metadata>
Created by potrace 1.14, written by Peter Selinger 2001-2017
</metadata>
<g transform="translate(0.000000,260.000000) scale(0.100000,-0.100000)"
fill="#000000" stroke="none">
<path d="M0 1300 l0 -1300 1300 0 1300 0 0 1300 0 1300 -1300 0 -1300 0 0
-1300z m1675 625 c100 -26 165 -63 240 -139 111 -112 155 -220 155 -381 0
-106 -18 -185 -61 -266 -61 -114 -188 -212 -328 -253 -71 -21 -237 -21 -316
-1 -144 38 -277 146 -339 275 -19 39 -37 89 -41 111 l-7 39 -74 0 -74 0 0
-215 0 -215 -115 0 -115 0 0 525 0 525 115 0 115 0 2 -207 3 -208 70 0 69 0
21 60 c34 96 62 141 128 209 66 67 150 116 240 141 71 19 238 19 312 0z"/>
<path d="M1430 1731 c-76 -24 -155 -96 -192 -176 -19 -41 -23 -67 -23 -150 0
-93 2 -105 33 -167 54 -110 145 -167 268 -168 131 0 223 54 279 166 24 47 30
73 33 144 8 160 -48 268 -169 329 -53 26 -73 31 -133 30 -39 0 -82 -4 -96 -8z"/>
</g>
</svg>
